<svg xmlns="http://www.w3.org/2000/svg" xmlns:xlink="http://www.w3.org/1999/xlink" version="1.1" width="1000" height="1000" viewBox="0 0 1000 1000" xml:space="preserve">
<desc fill="#000000">Created with Fabric.js 3.5.0</desc>
<defs fill="#000000">
</defs>
<rect x="0" y="0" width="100%" height="100%" fill="#ffffff"/>
<g transform="matrix(0.7841 0 0 0.7841 500.0039 500.0049)" id="325945">
<g style="" vector-effect="non-scaling-stroke">
		<g transform="matrix(1 0 0 1 -0.005 120.58)" id="svg_9">
<circle style="stroke: none; stroke-width: 0; stroke-dasharray: none; stroke-linecap: butt; stroke-dashoffset: 0; stroke-linejoin: miter; stroke-miterlimit: 4; is-custom-font: none; font-file-url: none; fill:#feb4c8; fill-rule: nonzero; opacity: 1;" cx="0" cy="0" r="517.1"/>
</g>
		<g transform="matrix(1 0 0 1 -256.5771 120.56)" id="svg_10">
<path style="stroke: none; stroke-width: 0; stroke-dasharray: none; stroke-linecap: butt; stroke-dashoffset: 0; stroke-linejoin: miter; stroke-miterlimit: 4; is-custom-font: none; font-file-url: none; fill: rgb(246,246,246); fill-rule: nonzero; opacity: 1;" transform=" translate(-260.5279, -758.24)" d="m 281.11 890.71 c 5.66 0 11.41 -0.57 17.26 -1.7 c 5.85 -1.13 11.41 -2.35 16.7 -3.68 c 5.28 -1.32 9.99 -2.73 14.15 -4.25 c 2.01 -0.73 3.75 -1.37 5.23 -1.92 c 2.18 -0.81 4.57 0.22 5.51 2.35 l 29.82 67.72 c 1.02 2.32 -0.11 5.01 -2.5 5.87 c -1.56 0.56 -3.49 1.27 -5.8 2.11 c -5.66 2.08 -12.55 4.34 -20.66 6.79 c -8.12 2.46 -17.36 4.62 -27.74 6.51 c -10.38 1.89 -21.04 2.83 -31.98 2.83 c -20.01 0 -38.02 -3.11 -54.06 -9.34 c -16.04 -6.23 -29.72 -15 -41.04 -26.32 c -11.32 -11.32 -20.01 -25.09 -26.04 -41.32 c -6.04 -16.22 -9.06 -34.53 -9.06 -54.91 l 0 -293.93 c 0 -2.42 1.96 -4.38 4.38 -4.38 l 73.89 0 c 2.42 0 4.38 1.96 4.38 4.38 l 0 76.15 c 0 2.42 1.96 4.38 4.38 4.38 l 63.09 0 c 2.42 0 4.38 1.96 4.38 4.38 l 0 73.89 c 0 2.42 -1.96 4.38 -4.38 4.38 l -63.09 0 c -2.42 0 -4.38 1.96 -4.38 4.38 l 0 126.38 c 0 7.17 0.66 13.87 1.98 20.09 c 1.32 6.23 3.68 11.42 7.07 15.57 c 3.4 4.16 8.21 7.46 14.43 9.91 c 6.23 2.46 14.24 3.68 24.06 3.68 l 0.02 0 z" stroke-linecap="round"/>
</g>
		<g transform="matrix(1 0 0 1 273.615 120.58)" id="svg_11">
<path style="stroke: none; stroke-width: 0; stroke-dasharray: none; stroke-linecap: butt; stroke-dashoffset: 0; stroke-linejoin: miter; stroke-miterlimit: 4; is-custom-font: none; font-file-url: none; fill: rgb(246,246,246); fill-rule: nonzero; opacity: 1;" transform=" translate(-790.72, -758.26)" d="m 795.63 558.45 c 17.96 0 34.38 2.33 49.24 7 c 14.85 4.67 27.64 11.66 38.35 20.99 c 10.71 9.33 19.09 20.91 25.14 34.73 c 6.04 13.82 9.07 29.89 9.07 48.2 c 0 16.25 -2.51 30.15 -7.51 41.72 c -5.01 11.58 -11.23 21.69 -18.66 30.32 c -7.44 8.64 -15.47 16.33 -24.1 23.06 c -8.64 6.74 -16.68 13.74 -24.1 20.99 c -7.43 7.26 -13.65 15.21 -18.66 23.84 c -5.01 8.64 -7.51 19.01 -7.51 31.1 l -78.78 0 c 0 -16.92 2.5 -31.62 7.52 -44.06 c 5.01 -12.44 11.14 -23.32 18.4 -32.65 c 7.25 -9.33 15.29 -17.53 24.1 -24.62 c 8.81 -7.08 16.85 -14 24.1 -20.73 c 7.26 -6.74 13.39 -13.65 18.4 -20.73 c 5.01 -7.08 7.52 -15.29 7.52 -24.62 c 0 -12.44 -3.63 -22.03 -10.88 -28.77 c -7.26 -6.74 -18.14 -10.11 -32.65 -10.11 c -11.06 0 -20.04 2.25 -26.95 6.74 c -6.92 4.5 -12.44 9.51 -16.59 15.03 c -4.84 6.22 -8.47 13.48 -10.88 21.77 l -76.19 -22.8 c 6.22 -17.96 15.2 -34.03 26.95 -48.2 c 5.18 -6.22 11.05 -12.18 17.62 -17.88 c 6.56 -5.7 14.17 -10.8 22.81 -15.29 c 8.63 -4.49 18.31 -8.11 29.02 -10.88 c 10.71 -2.76 22.46 -4.15 35.25 -4.15 l -0.03 0 z m -10.88 306.84 c 12.78 0 23.66 4.49 32.65 13.48 c 8.98 8.99 13.48 19.87 13.48 32.65 s -4.49 24.19 -13.48 33.17 c -8.99 8.98 -19.87 13.48 -32.65 13.48 s -24.19 -4.5 -33.17 -13.48 c -8.99 -8.98 -13.48 -20.04 -13.48 -33.17 s 4.49 -23.66 13.48 -32.65 c 8.98 -8.98 20.04 -13.48 33.17 -13.48 z" stroke-linecap="round"/>
</g>
		<g transform="matrix(1 0 0 1 31.685 120.555)" id="svg_12">
<path style="stroke: none; stroke-width: 0; stroke-dasharray: none; stroke-linecap: butt; stroke-dashoffset: 0; stroke-linejoin: miter; stroke-miterlimit: 4; is-custom-font: none; font-file-url: none; fill: rgb(246,246,246); fill-rule: nonzero; opacity: 1;" transform=" translate(-548.79, -758.235)" d="m 561.75 652 c 19 0 37.06 3.81 54.16 11.4 c 17.1 7.61 32.05 18.4 44.83 32.39 c 12.78 13.99 22.89 30.93 30.32 50.79 c 7.43 19.87 11.14 41.9 11.14 66.08 s -3.72 46.22 -11.14 66.08 c -7.43 19.87 -17.54 36.8 -30.32 50.79 c -12.79 14 -27.73 24.8 -44.83 32.39 c -17.1 7.6 -35.16 11.4 -54.16 11.4 c -21.77 0 -40 -3.72 -54.68 -11.14 c -8.92 -4.51 -16.65 -10.16 -24.1 -16.23 c -3.95 -3.22 -9.82 -0.44 -9.82 4.66 c 0 8.3 -0.55 17.28 -2.11 17.39 c -22.95 1.62 -46.55 0.38 -69.7 0.18 c -3.3 -0.03 -5.96 -2.69 -5.96 -5.99 l 0 -413.04 c 0 -3.32 2.69 -6 6 -6 l 63.66 0 c 3.32 0 6 2.69 6 6 l 0 126.75 c 0 5.21 6.1 7.86 10.03 4.45 c 7.45 -6.48 16.11 -12.22 25.99 -17.22 c 14.68 -7.43 32.91 -11.14 54.68 -11.14 l 0.01 0.01 z m -11.92 249.83 c 10.02 0 19.61 -1.99 28.77 -5.96 c 9.15 -3.97 17.1 -9.85 23.84 -17.62 c 6.74 -7.77 12.09 -17.18 16.07 -28.25 c 3.97 -11.05 5.96 -23.49 5.96 -37.32 s -1.99 -26.69 -5.96 -37.58 c -3.98 -10.88 -9.33 -20.21 -16.07 -27.99 c -6.74 -7.77 -14.69 -13.65 -23.84 -17.62 c -9.16 -3.97 -18.75 -5.96 -28.77 -5.96 c -12.44 0 -23.58 2.33 -33.43 7 c -9.85 4.67 -18.14 11.06 -24.88 19.18 c -6.74 8.12 -11.84 17.62 -15.29 28.51 c -3.46 10.88 -5.18 22.38 -5.18 34.47 s 1.73 23.58 5.18 34.47 c 3.45 10.89 8.55 20.39 15.29 28.51 c 6.74 8.12 15.03 14.51 24.88 19.18 c 9.85 4.66 20.99 7 33.43 7 l 0 -0.02 z" stroke-linecap="round"/>
</g>
</g>
</g>
</svg>