<?xml version="1.0" encoding="UTF-8"?>
<svg id="Camada_1" data-name="Camada 1" xmlns="http://www.w3.org/2000/svg" width="1034.21" height="1034.21" viewBox="0 0 1034.21 1034.21">
  <defs>
    <style>
      .cls-1 {
        fill: #000;
        stroke-width: 0px;
      }
    </style>
  </defs>
  <path class="cls-1" d="M122.01,566.7c1.74,0,3.51-.17,5.31-.52,1.8-.35,3.51-.72,5.13-1.13,1.62-.41,3.07-.84,4.35-1.3,1.28-.46,2.2-.81,2.78-1.04l10.27,23.32c-.35.12-1.39.5-3.13,1.13-1.74.64-3.86,1.34-6.35,2.09-2.5.76-5.34,1.42-8.53,2-3.19.58-6.47.87-9.83.87-6.15,0-11.69-.96-16.62-2.87-4.93-1.91-9.14-4.61-12.62-8.09-3.48-3.48-6.15-7.71-8-12.7-1.86-4.99-2.78-10.61-2.78-16.88v-91.71h25.41v26.1h34.11v25.41h-34.11v40.2c0,2.21.2,4.26.61,6.18.41,1.91,1.13,3.51,2.18,4.79,1.04,1.28,2.52,2.29,4.44,3.04,1.91.76,4.38,1.13,7.4,1.13Z"/>
  <path class="cls-1" d="M217.02,485.95h25.41v104.41h-25.41v-11.14c-3.02,3.6-6.99,6.64-11.92,9.14-4.93,2.49-11.05,3.74-18.36,3.74-6.38,0-12.44-1.28-18.18-3.83-5.74-2.55-10.76-6.18-15.05-10.88-4.29-4.7-7.72-10.38-10.27-17.05-2.55-6.67-3.83-14.06-3.83-22.19s1.28-15.51,3.83-22.19c2.55-6.67,5.97-12.35,10.27-17.05,4.29-4.7,9.31-8.32,15.05-10.88,5.74-2.55,11.8-3.83,18.18-3.83,7.31,0,13.43,1.25,18.36,3.74,4.93,2.5,8.9,5.54,11.92,9.14v-11.14ZM217.02,538.16c0-4.06-.58-7.92-1.74-11.57-1.16-3.65-2.84-6.84-5.05-9.57-2.21-2.72-4.96-4.87-8.27-6.44-3.31-1.57-7.05-2.35-11.22-2.35-3.48,0-6.73.67-9.74,2-3.02,1.33-5.69,3.31-8,5.92-2.32,2.61-4.15,5.74-5.48,9.4-1.34,3.65-2,7.86-2,12.62s.67,8.82,2,12.53c1.33,3.71,3.16,6.87,5.48,9.48,2.32,2.61,4.99,4.58,8,5.92,3.02,1.33,6.26,2,9.74,2,4.18,0,7.92-.78,11.22-2.35,3.31-1.57,6.06-3.71,8.27-6.44,2.2-2.72,3.89-5.92,5.05-9.57,1.16-3.65,1.74-7.51,1.74-11.57ZM183.08,474.82l19.66-33.24h24.54l-23.14,33.24h-21.06Z"/>
  <path class="cls-1" d="M358.31,484.21c6.38,0,12.44,1.28,18.18,3.83,5.74,2.55,10.76,6.18,15.05,10.88,4.29,4.7,7.68,10.38,10.18,17.05,2.49,6.67,3.74,14.07,3.74,22.19s-1.25,15.52-3.74,22.19c-2.5,6.67-5.89,12.36-10.18,17.05-4.29,4.7-9.31,8.33-15.05,10.88-5.74,2.55-11.81,3.83-18.18,3.83-7.31,0-13.43-1.25-18.36-3.74-4.93-2.49-8.96-5.54-12.09-9.14v11.14h-25.41v-142.69h25.41v49.42c3.13-3.59,7.16-6.64,12.09-9.14,4.93-2.49,11.05-3.74,18.36-3.74ZM354.31,568.09c3.36,0,6.58-.67,9.66-2,3.07-1.33,5.74-3.31,8-5.92,2.26-2.61,4.06-5.77,5.39-9.48,1.33-3.71,2-7.89,2-12.53s-.67-8.96-2-12.62c-1.33-3.65-3.13-6.79-5.39-9.4s-4.93-4.58-8-5.92c-3.08-1.33-6.29-2-9.66-2-4.18,0-7.92.78-11.22,2.35-3.31,1.57-6.09,3.71-8.35,6.44-2.26,2.73-3.98,5.92-5.13,9.57-1.16,3.65-1.74,7.51-1.74,11.57s.58,7.92,1.74,11.57c1.16,3.65,2.87,6.85,5.13,9.57,2.26,2.73,5.05,4.87,8.35,6.44,3.31,1.57,7.05,2.35,11.22,2.35Z"/>
  <path class="cls-1" d="M485.69,485.95h25.41v104.41h-25.41v-11.14c-3.02,3.6-6.99,6.64-11.92,9.14-4.93,2.49-11.05,3.74-18.36,3.74-6.38,0-12.44-1.28-18.18-3.83-5.74-2.55-10.76-6.18-15.05-10.88-4.29-4.7-7.72-10.38-10.27-17.05-2.55-6.67-3.83-14.06-3.83-22.19s1.27-15.51,3.83-22.19c2.55-6.67,5.97-12.35,10.27-17.05,4.29-4.7,9.31-8.32,15.05-10.88,5.74-2.55,11.8-3.83,18.18-3.83,7.31,0,13.43,1.25,18.36,3.74,4.93,2.5,8.9,5.54,11.92,9.14v-11.14ZM485.69,538.16c0-4.06-.58-7.92-1.74-11.57-1.16-3.65-2.84-6.84-5.05-9.57-2.21-2.72-4.96-4.87-8.27-6.44-3.31-1.57-7.05-2.35-11.22-2.35-3.48,0-6.73.67-9.75,2-3.02,1.33-5.69,3.31-8,5.92-2.32,2.61-4.15,5.74-5.48,9.4-1.33,3.65-2,7.86-2,12.62s.67,8.82,2,12.53c1.33,3.71,3.16,6.87,5.48,9.48,2.32,2.61,4.99,4.58,8,5.92,3.02,1.33,6.26,2,9.75,2,4.18,0,7.92-.78,11.22-2.35,3.31-1.57,6.06-3.71,8.27-6.44,2.2-2.72,3.89-5.92,5.05-9.57,1.16-3.65,1.74-7.51,1.74-11.57Z"/>
  <path class="cls-1" d="M570.09,484.21c3.36,0,6.38.49,9.05,1.48,2.67.99,4.87,2.12,6.61,3.39,2.2,1.51,4.06,3.19,5.57,5.05l-11.83,21.4c-1.63-1.39-3.37-2.67-5.22-3.83-1.63-.93-3.45-1.8-5.48-2.61-2.03-.81-4.21-1.22-6.53-1.22-2.9,0-5.39.61-7.48,1.83-2.09,1.22-3.77,2.84-5.05,4.87-1.28,2.03-2.21,4.29-2.78,6.79-.58,2.5-.87,5.02-.87,7.57v61.43h-25.41v-104.41h25.41v16.88c1.04-2.44,2.26-4.79,3.65-7.05,1.39-2.26,3.04-4.23,4.96-5.92,1.91-1.68,4.12-3.05,6.61-4.09,2.49-1.04,5.42-1.57,8.79-1.57Z"/>
  <path class="cls-1" d="M661.97,485.95h25.41v104.41h-25.41v-11.14c-3.02,3.6-6.99,6.64-11.92,9.14-4.93,2.49-11.05,3.74-18.36,3.74-6.38,0-12.44-1.28-18.19-3.83-5.74-2.55-10.76-6.18-15.05-10.88-4.29-4.7-7.72-10.38-10.27-17.05-2.55-6.67-3.83-14.06-3.83-22.19s1.28-15.51,3.83-22.19c2.55-6.67,5.97-12.35,10.27-17.05,4.29-4.7,9.31-8.32,15.05-10.88,5.74-2.55,11.8-3.83,18.19-3.83,7.31,0,13.43,1.25,18.36,3.74,4.93,2.5,8.9,5.54,11.92,9.14v-11.14ZM661.97,538.16c0-4.06-.58-7.92-1.74-11.57-1.16-3.65-2.84-6.84-5.05-9.57-2.21-2.72-4.96-4.87-8.27-6.44-3.31-1.57-7.05-2.35-11.22-2.35-3.48,0-6.73.67-9.75,2-3.02,1.33-5.69,3.31-8,5.92-2.32,2.61-4.15,5.74-5.48,9.4-1.33,3.65-2,7.86-2,12.62s.67,8.82,2,12.53c1.33,3.71,3.16,6.87,5.48,9.48,2.32,2.61,4.99,4.58,8,5.92,3.02,1.33,6.26,2,9.75,2,4.18,0,7.92-.78,11.22-2.35,3.31-1.57,6.06-3.71,8.27-6.44,2.2-2.72,3.88-5.92,5.05-9.57,1.16-3.65,1.74-7.51,1.74-11.57Z"/>
  <path class="cls-1" d="M736.97,566.7c1.74,0,3.51-.17,5.31-.52,1.8-.35,3.51-.72,5.13-1.13,1.62-.41,3.07-.84,4.35-1.3,1.28-.46,2.2-.81,2.78-1.04l10.27,23.32c-.35.12-1.39.5-3.13,1.13-1.74.64-3.86,1.34-6.35,2.09-2.5.76-5.34,1.42-8.53,2-3.19.58-6.47.87-9.83.87-6.15,0-11.69-.96-16.62-2.87-4.93-1.91-9.14-4.61-12.62-8.09-3.48-3.48-6.15-7.71-8-12.7-1.86-4.99-2.78-10.61-2.78-16.88v-91.71h25.41v26.1h34.11v25.41h-34.11v40.2c0,2.21.2,4.26.61,6.18.41,1.91,1.13,3.51,2.17,4.79,1.04,1.28,2.52,2.29,4.44,3.04,1.91.76,4.38,1.13,7.4,1.13Z"/>
  <path class="cls-1" d="M809.88,592.1c-7.43,0-14.27-1.37-20.53-4.09-6.26-2.72-11.66-6.5-16.18-11.31-4.52-4.81-8.06-10.5-10.62-17.05-2.55-6.55-3.83-13.72-3.83-21.49s1.28-14.94,3.83-21.49c2.55-6.55,6.09-12.24,10.62-17.05,4.52-4.81,9.92-8.58,16.18-11.31,6.26-2.72,13.11-4.09,20.53-4.09s14.27,1.36,20.53,4.09c6.26,2.73,11.66,6.5,16.18,11.31,4.52,4.82,8.06,10.5,10.61,17.05,2.55,6.56,3.83,13.72,3.83,21.49s-1.28,14.94-3.83,21.49c-2.55,6.55-6.09,12.24-10.61,17.05-4.52,4.82-9.92,8.59-16.18,11.31-6.26,2.72-13.11,4.09-20.53,4.09ZM809.88,567.22c3.36,0,6.58-.64,9.66-1.91,3.07-1.27,5.74-3.13,8-5.57,2.26-2.44,4.06-5.48,5.39-9.14,1.33-3.65,2-7.8,2-12.44s-.67-8.93-2-12.53c-1.33-3.59-3.13-6.61-5.39-9.05-2.26-2.44-4.93-4.29-8-5.57-3.08-1.27-6.29-1.91-9.66-1.91s-6.59.64-9.66,1.91c-3.08,1.28-5.74,3.13-8,5.57-2.26,2.44-4.06,5.45-5.39,9.05-1.33,3.6-2,7.77-2,12.53s.67,8.79,2,12.44c1.33,3.65,3.13,6.7,5.39,9.14,2.26,2.44,4.93,4.29,8,5.57,3.07,1.28,6.29,1.91,9.66,1.91Z"/>
  <path class="cls-1" d="M911.33,458.46c6.03,0,11.54.78,16.53,2.35,4.99,1.57,9.28,3.92,12.88,7.05,3.59,3.13,6.41,7.02,8.44,11.66,2.03,4.64,3.04,10.04,3.04,16.18,0,5.45-.84,10.12-2.52,14.01-1.68,3.89-3.77,7.28-6.26,10.18-2.5,2.9-5.19,5.48-8.09,7.74-2.9,2.26-5.6,4.61-8.09,7.05-2.5,2.44-4.58,5.11-6.26,8-1.68,2.9-2.52,6.38-2.52,10.44h-26.45c0-5.68.84-10.62,2.52-14.79,1.68-4.18,3.74-7.83,6.18-10.96s5.13-5.89,8.09-8.27c2.96-2.38,5.66-4.7,8.09-6.96s4.5-4.58,6.18-6.96c1.68-2.38,2.52-5.13,2.52-8.27,0-4.18-1.22-7.4-3.65-9.66-2.44-2.26-6.09-3.39-10.96-3.39-3.71,0-6.73.76-9.05,2.26-2.32,1.51-4.18,3.19-5.57,5.05-1.63,2.09-2.84,4.52-3.65,7.31l-25.58-7.66c2.09-6.03,5.1-11.43,9.05-16.18,1.74-2.09,3.71-4.09,5.92-6,2.2-1.91,4.76-3.62,7.66-5.13,2.9-1.51,6.15-2.72,9.75-3.65,3.59-.93,7.54-1.39,11.83-1.39ZM907.68,561.48c4.29,0,7.95,1.51,10.96,4.52,3.02,3.02,4.52,6.67,4.52,10.96s-1.51,8.12-4.52,11.14c-3.02,3.02-6.67,4.53-10.96,4.53s-8.12-1.51-11.14-4.53c-3.02-3.02-4.52-6.73-4.52-11.14s1.51-7.95,4.52-10.96,6.73-4.52,11.14-4.52Z"/>
</svg>