<?xml version="1.0"?>
<svg width="1034.21" height="1275.36" xmlns="http://www.w3.org/2000/svg" xmlns:svg="http://www.w3.org/2000/svg" data-name="Camada 1">
 <defs>
  <style>.cls-1 {
        fill: #000;
        font-family: Salmond-SemiBold, Salmond;
        font-size: 141.63px;
        font-weight: 600;
      }

      .cls-2 {
        letter-spacing: -.04em;
      }

      .cls-3 {
        fill: #b06ed3;
      }

      .cls-3, .cls-4 {
        stroke-width: 0px;
      }

      .cls-5 {
        letter-spacing: -.03em;
      }

      .cls-6 {
        letter-spacing: -.09em;
      }

      .cls-4 {
        fill: #f6f6f6;
      }

      .cls-7 {
        letter-spacing: -.04em;
      }

      .cls-8 {
        letter-spacing: -.07em;
      }</style>
 </defs>
 <g class="layer">
  <title>Layer 1</title>
  <g id="svg_8">
   <circle class="cls-3" cx="517.1" cy="758.26" id="svg_9" r="517.1"/>
   <path class="cls-4" d="m281.11,890.71c5.66,0 11.41,-0.57 17.26,-1.7c5.85,-1.13 11.41,-2.35 16.7,-3.68c5.28,-1.32 9.99,-2.73 14.15,-4.25c2.01,-0.73 3.75,-1.37 5.23,-1.92c2.18,-0.81 4.57,0.22 5.51,2.35l29.82,67.72c1.02,2.32 -0.11,5.01 -2.5,5.87c-1.56,0.56 -3.49,1.27 -5.8,2.11c-5.66,2.08 -12.55,4.34 -20.66,6.79c-8.12,2.46 -17.36,4.62 -27.74,6.51c-10.38,1.89 -21.04,2.83 -31.98,2.83c-20.01,0 -38.02,-3.11 -54.06,-9.34c-16.04,-6.23 -29.72,-15 -41.04,-26.32c-11.32,-11.32 -20.01,-25.09 -26.04,-41.32c-6.04,-16.22 -9.06,-34.53 -9.06,-54.91l0,-293.93c0,-2.42 1.96,-4.38 4.38,-4.38l73.89,0c2.42,0 4.38,1.96 4.38,4.38l0,76.15c0,2.42 1.96,4.38 4.38,4.38l63.09,0c2.42,0 4.38,1.96 4.38,4.38l0,73.89c0,2.42 -1.96,4.38 -4.38,4.38l-63.09,0c-2.42,0 -4.38,1.96 -4.38,4.38l0,126.38c0,7.17 0.66,13.87 1.98,20.09c1.32,6.23 3.68,11.42 7.07,15.57c3.4,4.16 8.21,7.46 14.43,9.91c6.23,2.46 14.24,3.68 24.06,3.68l0.02,0z" id="svg_10"/>
   <path class="cls-4" d="m795.63,558.45c17.96,0 34.38,2.33 49.24,7c14.85,4.67 27.64,11.66 38.35,20.99c10.71,9.33 19.09,20.91 25.14,34.73c6.04,13.82 9.07,29.89 9.07,48.2c0,16.25 -2.51,30.15 -7.51,41.72c-5.01,11.58 -11.23,21.69 -18.66,30.32c-7.44,8.64 -15.47,16.33 -24.1,23.06c-8.64,6.74 -16.68,13.74 -24.1,20.99c-7.43,7.26 -13.65,15.21 -18.66,23.84c-5.01,8.64 -7.51,19.01 -7.51,31.1l-78.78,0c0,-16.92 2.5,-31.62 7.52,-44.06c5.01,-12.44 11.14,-23.32 18.4,-32.65c7.25,-9.33 15.29,-17.53 24.1,-24.62c8.81,-7.08 16.85,-14 24.1,-20.73c7.26,-6.74 13.39,-13.65 18.4,-20.73c5.01,-7.08 7.52,-15.29 7.52,-24.62c0,-12.44 -3.63,-22.03 -10.88,-28.77c-7.26,-6.74 -18.14,-10.11 -32.65,-10.11c-11.06,0 -20.04,2.25 -26.95,6.74c-6.92,4.5 -12.44,9.51 -16.59,15.03c-4.84,6.22 -8.47,13.48 -10.88,21.77l-76.19,-22.8c6.22,-17.96 15.2,-34.03 26.95,-48.2c5.18,-6.22 11.05,-12.18 17.62,-17.88c6.56,-5.7 14.17,-10.8 22.81,-15.29c8.63,-4.49 18.31,-8.11 29.02,-10.88c10.71,-2.76 22.46,-4.15 35.25,-4.15l-0.03,0zm-10.88,306.84c12.78,0 23.66,4.49 32.65,13.48c8.98,8.99 13.48,19.87 13.48,32.65s-4.49,24.19 -13.48,33.17c-8.99,8.98 -19.87,13.48 -32.65,13.48s-24.19,-4.5 -33.17,-13.48c-8.99,-8.98 -13.48,-20.04 -13.48,-33.17s4.49,-23.66 13.48,-32.65c8.98,-8.98 20.04,-13.48 33.17,-13.48z" id="svg_11"/>
   <path class="cls-4" d="m561.75,652c19,0 37.06,3.81 54.16,11.4c17.1,7.61 32.05,18.4 44.83,32.39c12.78,13.99 22.89,30.93 30.32,50.79c7.43,19.87 11.14,41.9 11.14,66.08s-3.72,46.22 -11.14,66.08c-7.43,19.87 -17.54,36.8 -30.32,50.79c-12.79,14 -27.73,24.8 -44.83,32.39c-17.1,7.6 -35.16,11.4 -54.16,11.4c-21.77,0 -40,-3.72 -54.68,-11.14c-8.92,-4.51 -16.65,-10.16 -24.1,-16.23c-3.95,-3.22 -9.82,-0.44 -9.82,4.66c0,8.3 -0.55,17.28 -2.11,17.39c-22.95,1.62 -46.55,0.38 -69.7,0.18c-3.3,-0.03 -5.96,-2.69 -5.96,-5.99l0,-413.04c0,-3.32 2.69,-6 6,-6l63.66,0c3.32,0 6,2.69 6,6l0,126.75c0,5.21 6.1,7.86 10.03,4.45c7.45,-6.48 16.11,-12.22 25.99,-17.22c14.68,-7.43 32.91,-11.14 54.68,-11.14l0.01,0.01zm-11.92,249.83c10.02,0 19.61,-1.99 28.77,-5.96c9.15,-3.97 17.1,-9.85 23.84,-17.62c6.74,-7.77 12.09,-17.18 16.07,-28.25c3.97,-11.05 5.96,-23.49 5.96,-37.32s-1.99,-26.69 -5.96,-37.58c-3.98,-10.88 -9.33,-20.21 -16.07,-27.99c-6.74,-7.77 -14.69,-13.65 -23.84,-17.62c-9.16,-3.97 -18.75,-5.96 -28.77,-5.96c-12.44,0 -23.58,2.33 -33.43,7c-9.85,4.67 -18.14,11.06 -24.88,19.18c-6.74,8.12 -11.84,17.62 -15.29,28.51c-3.46,10.88 -5.18,22.38 -5.18,34.47s1.73,23.58 5.18,34.47c3.45,10.89 8.55,20.39 15.29,28.51c6.74,8.12 15.03,14.51 24.88,19.18c9.85,4.66 20.99,7 33.43,7l0,-0.02z" id="svg_12"/>
  </g>
 </g>
</svg>